<svg width="28" height="26" viewBox="0 0 28 26" fill="none" xmlns="http://www.w3.org/2000/svg">
<path d="M26.7295 12.7949L14.6621 0.736319C14.5752 0.649261 14.472 0.580192 14.3584 0.533067C14.2448 0.485942 14.123 0.461685 14 0.461685C13.877 0.461685 13.7552 0.485942 13.6416 0.533067C13.528 0.580192 13.4248 0.649261 13.3379 0.736319L1.27051 12.7949C0.918945 13.1465 0.719727 13.624 0.719727 14.1221C0.719727 15.1562 1.56055 15.9971 2.59473 15.9971H3.86621V24.6016C3.86621 25.1201 4.28516 25.5391 4.80371 25.5391H12.125V18.9766H15.4062V25.5391H23.1963C23.7148 25.5391 24.1338 25.1201 24.1338 24.6016V15.9971H25.4053C25.9033 15.9971 26.3809 15.8008 26.7324 15.4463C27.4619 14.7139 27.4619 13.5273 26.7295 12.7949Z" fill="#FEFEFE"/>
</svg>
