<svg xmlns="http://www.w3.org/2000/svg" width="23" height="27" fill="none" viewBox="0 0 23 27"><path fill="#000" fill-opacity=".71" d="M15.2575 2.76147C14.1878 2.33784 12.9886 2.95945 12.5398 4.0928C12.1075 5.18443 11.722 6.13668 11.722 6.13668L9.82004 5.38346C9.78424 5.36928 9.74794 5.35977 9.7114 5.35226L9.18239 5.14276L8.40523 7.10522L17.2779 10.619L18.0551 8.65649L17.5261 8.447C17.4943 8.42745 17.4613 8.40954 17.4255 8.39536L15.5236 7.64215C15.5236 7.64215 15.8876 6.78612 16.3532 5.61037C16.7855 4.51873 16.3272 3.1851 15.2575 2.76147ZM7.49611 1.99056L8.9407e-08 20.9193L13.9462 26.4423L21.4423 7.5135L17.024 5.76378L16.481 7.13508L19.6225 8.37917L13.2135 24.5628L1.82208 20.0516L8.23106 3.86797L11.3714 5.11158L11.9144 3.74029L7.49611 1.99056ZM14.4591 4.77755C14.8096 4.91634 14.9741 5.32796 14.8273 5.69879C14.6801 6.0703 14.2782 6.25826 13.9277 6.11948C13.5772 5.98069 13.4129 5.56846 13.5601 5.19696C13.7069 4.82615 14.1087 4.63877 14.4591 4.77755ZM7.87835 8.43568L7.61238 9.10727L8.24598 9.35819L8.51194 8.68659L7.87835 8.43568ZM9.77527 9.20165L9.5093 9.87325L16.48 12.6338L16.746 11.9622L9.77527 9.20165ZM6.87516 10.9689L6.6092 11.6405L7.24279 11.8914L7.50876 11.2198L6.87516 10.9689ZM8.77208 11.7348L8.50561 12.4077L15.4763 15.1682L15.7428 14.4954L8.77208 11.7348ZM5.87197 13.5021L5.606 14.1737L6.2396 14.4246L6.50556 13.753L5.87197 13.5021ZM7.76839 14.2693L7.50242 14.9409L14.4731 17.7014L14.7391 17.0298L7.76839 14.2693ZM4.86828 16.0365L4.60231 16.7081L5.23591 16.9591L5.50187 16.2875L4.86828 16.0365ZM6.76469 16.8038L6.49872 17.4754L13.4694 20.2359L13.7354 19.5643L6.76469 16.8038ZM3.86508 18.5698L3.59912 19.2414L4.23272 19.4923L4.49868 18.8207L3.86508 18.5698ZM5.7615 19.337L5.49554 20.0086L12.4662 22.7691L12.7322 22.0975L5.7615 19.337Z"/></svg>