<svg id="Capa_1" enable-background="new 0 0 512 512" height="512" viewBox="0 0 512 512" width="512" xmlns="http://www.w3.org/2000/svg"><g><path d="m313.112 15.611v405.166c0 4.479-3.631 8.111-8.111 8.111h-261.444c-4.479 0-8.111-3.631-8.111-8.111v-20.692c0-2.626 1.879-4.9 4.469-5.329 12.842-2.13 22.629-13.285 22.629-26.732 0-13.438-9.788-24.601-22.63-26.732-2.59-.43-4.469-2.704-4.469-5.329v-35.764c0-2.626 1.879-4.9 4.469-5.329 12.842-2.13 22.629-13.285 22.629-26.732s-9.788-24.602-22.629-26.732c-2.59-.43-4.469-2.703-4.469-5.329v-35.764c0-2.626 1.879-4.899 4.469-5.329 12.842-2.131 22.63-13.295 22.63-26.732 0-13.447-9.788-24.602-22.629-26.732-2.59-.43-4.469-2.703-4.469-5.329v-35.774c0-2.626 1.879-4.9 4.469-5.329 12.842-2.13 22.629-13.285 22.629-26.732 0-13.437-9.788-24.601-22.63-26.732-2.59-.43-4.469-2.704-4.469-5.329v-20.684c0-4.479 3.631-8.111 8.111-8.111h261.444c4.481 0 8.112 3.631 8.112 8.111z" fill="#efedef"/><path d="m305.002 7.5h-31.705c4.479 0 8.111 3.631 8.111 8.111v405.166c0 4.479-3.631 8.111-8.111 8.111h31.705c4.479 0 8.111-3.631 8.111-8.111v-405.166c-.001-4.48-3.632-8.111-8.111-8.111z" fill="#e3e0e4"/><path d="m450.054 179.534-82.21-103.179c-11.633-14.6-33.252-16.16-46.861-3.382l-109.725 103.028c-4.377 4.11-5.221 10.749-2.011 15.824l4.699 7.429c9.319 14.732 29.442 17.962 42.903 6.886l52.966-43.579c5.74-4.722 14.415-2.492 17.166 4.413l14.385 36.117c3.075 7.72 2.362 16.434-1.927 23.551l-35.327 58.628v186.408h105.102v-133.515l45.98-127.411c3.824-10.593 1.878-22.411-5.14-31.218z" fill="#ffcdbe"/><path d="m450.054 179.534-82.21-103.179c-9.85-12.363-26.859-15.372-40.104-8.247 3.704 1.985 7.084 4.735 9.883 8.247l82.21 103.179c7.018 8.808 8.964 20.625 5.141 31.218l-45.98 127.411v133.515h30.221v-133.515l45.98-127.411c3.823-10.593 1.877-22.411-5.141-31.218z" fill="#ebae9d"/><g><path d="m452.25 72.062-19.203 11.087 16.201 28.06 19.203-11.087c7.749-4.474 10.403-14.382 5.93-22.13s-14.383-10.403-22.131-5.93z" fill="#e175a5"/><path d="m423.841 77.987-241.68 139.534c-12.088 6.979-16.23 22.437-9.251 34.525s22.437 16.23 34.525 9.251l241.68-139.534c2.579-1.489 3.462-4.786 1.973-7.365l-19.883-34.438c-1.489-2.578-4.786-3.462-7.364-1.973z" fill="#5766cc"/><path d="m451.088 114.399-11.997-20.779c1.575 2.728.762 6.147-1.817 7.635l-241.68 139.534c-8.249 4.763-18.219 4.078-26.067-.9.075 4.139 1.166 8.318 3.382 12.157 6.979 12.088 22.437 16.23 34.525 9.251l241.68-139.534c2.579-1.489 3.463-4.786 1.974-7.364z" fill="#3d4ec4"/></g><path d="m314.078 355.196-40.996-23.427c-6.031-3.446-11.047-8.422-14.541-14.425l-52.748-90.619c-6.777-11.642-3.874-26.504 6.785-34.74 11.564-8.936 28.151-6.977 37.316 4.405l39.083 48.539s73.512 18.825 71.719 20.618-46.618 89.649-46.618 89.649z" fill="#ffcdbe"/><path d="m285.6 378.336v30.457h142.128v-30.457c0-5.09-4.126-9.216-9.216-9.216h-123.696c-5.09 0-9.216 4.126-9.216 9.216z" fill="#e175a5"/><path d="m418.511 369.12h-28.924c5.09 0 9.216 4.126 9.216 9.216v30.457h28.924v-30.457c.001-5.09-4.125-9.216-9.216-9.216z" fill="#ca59a6"/><path d="m265.852 504.5v-83.699c0-6.632 5.376-12.008 12.008-12.008h157.607c6.632 0 12.008 5.376 12.008 12.008v83.699z" fill="#80b6fc"/><path d="m435.468 408.793h-28.924c6.632 0 12.008 5.376 12.008 12.008v83.699h28.924v-83.699c-.001-6.632-5.377-12.008-12.008-12.008z" fill="#5392f9"/><path d="m480.87 74.242c-3.165-5.482-8.276-9.404-14.391-11.043-6.115-1.637-12.502-.798-17.984 2.368l-13.203 7.623c-1.52-1.409-3.368-2.437-5.428-2.987-3.325-.889-6.799-.43-9.779 1.292l-31.869 18.4-14.516-18.218c-6.844-8.592-17.054-13.974-28.011-14.765-8.92-.641-17.779 1.792-25.085 6.771v-48.073c0-8.607-7.002-15.61-15.61-15.61h-172.45c-4.142 0-7.5 3.358-7.5 7.5s3.358 7.5 7.5 7.5h172.45c.336 0 .61.273.61.61v61.505l-37.882 35.572c-.989-2.985-3.799-5.141-7.116-5.141h-145.566c-4.142 0-7.5 3.358-7.5 7.5s3.358 7.5 7.5 7.5h142.183l-51.101 47.985c-6.159 5.78-7.935 14.724-4.766 22.31-1.669 2.272-3.03 4.726-4.084 7.294l-18.288 10.555h-63.941c-4.142 0-7.5 3.358-7.5 7.5s3.358 7.5 7.5 7.5h49.984c-.768 1.675-1.408 3.422-1.894 5.237-1.604 5.985-1.481 12.156.275 17.942l-23.939 13.819c-3.587 2.071-4.817 6.658-2.746 10.245 2.081 3.606 6.675 4.807 10.245 2.746l23.957-13.829c6.276 6.674 15.003 10.33 23.924 10.329 5.554 0 11.181-1.413 16.325-4.385l7.366-4.253 29.28 50.3h-132.78c-4.142 0-7.5 3.358-7.5 7.5s3.358 7.5 7.5 7.5h142.652c3.349 3.733 7.28 6.933 11.662 9.44l27.25 15.571v7.767h-1.793c-9.217 0-16.716 7.499-16.716 16.716v22.957h-.24c-10.757 0-19.508 8.751-19.508 19.508v.589h-214.793c-.336 0-.61-.274-.61-.61v-18.968c15.81-3.476 27.1-17.405 27.1-33.792 0-16.382-11.29-30.308-27.1-33.782v-32.316c15.81-3.475 27.1-17.4 27.1-33.782 0-16.387-11.29-30.316-27.1-33.792v-32.316c15.81-3.475 27.1-17.4 27.1-33.782s-11.29-30.308-27.1-33.782v-32.327c15.81-3.476 27.1-17.405 27.1-33.792 0-16.382-11.29-30.308-27.1-33.782v-18.956c0-.336.273-.61.61-.61h53.99c4.142 0 7.5-3.358 7.5-7.5s-3.358-7.5-7.5-7.5h-53.99c-8.607 0-15.61 7.002-15.61 15.61v20.68c0 6.342 4.517 11.695 10.742 12.729 9.478 1.572 16.357 9.702 16.357 19.331 0 9.635-6.879 17.769-16.359 19.341-6.224 1.034-10.741 6.383-10.741 12.719v35.78c0 6.342 4.517 11.695 10.742 12.729 9.478 1.572 16.357 9.702 16.357 19.331s-6.879 17.759-16.359 19.332c-6.224 1.034-10.741 6.387-10.741 12.729v35.77c0 6.337 4.518 11.686 10.742 12.719 9.478 1.572 16.357 9.707 16.357 19.341 0 9.629-6.879 17.759-16.357 19.331-6.225 1.033-10.742 6.386-10.742 12.729v35.76c0 6.342 4.517 11.695 10.742 12.729 9.478 1.572 16.357 9.702 16.357 19.331 0 9.635-6.879 17.769-16.359 19.341-6.224 1.034-10.741 6.383-10.741 12.719v20.7c0 8.607 7.002 15.61 15.61 15.61h214.792v68.11c0 4.142 3.358 7.5 7.5 7.5h181.627c4.142 0 7.5-3.358 7.5-7.5v-83.699c0-10.757-8.751-19.508-19.508-19.508h-.24v-22.957c0-9.217-7.499-16.716-16.716-16.716h-1.791v-22.147l12.114-33.566c1.406-3.896-.612-8.194-4.509-9.601-3.895-1.404-8.194.612-9.601 4.509l-12.56 34.8c-.294.816-.445 1.678-.445 2.546v23.459h-90.11v-12.121c0-2.589-1.371-5.131-3.779-6.512l-31.026-17.728c-4.879-2.792-8.954-6.835-11.783-11.693l-37.246-63.986-.011-.021-.015-.023-15.477-26.588c-4.861-8.358-2.758-19.122 4.892-25.035 8.271-6.388 20.331-4.963 26.884 3.179l39.09 48.54c1.015 1.261 2.411 2.159 3.979 2.561.166.042 16.851 4.324 33.901 8.923 3.175.881 6.688-.473 8.425-3.358l16.42-27.25c5.463-9.066 6.388-20.353 2.475-30.195l-3.791-9.524 71.84-41.478 27.797 34.89c5.358 6.724 6.876 15.921 3.961 24l-21.55 59.71c-1.406 3.896.612 8.194 4.509 9.601.841.303 1.7.447 2.545.447 3.071 0 5.953-1.901 7.055-4.956l21.551-59.711c4.668-12.943 2.239-27.672-6.339-38.438l-26.393-33.128 23.337-13.474c2.979-1.721 5.113-4.496 6.007-7.814.555-2.06.589-4.177.128-6.199l13.204-7.624c5.482-3.165 9.404-8.276 11.043-14.391 1.639-6.113.798-12.5-2.367-17.983zm-40.9 346.559v76.199h-166.623v-76.199c0-2.486 2.022-4.508 4.508-4.508h157.607c2.486-.001 4.508 2.022 4.508 4.508zm-19.748-42.465v22.957h-127.128v-22.957c0-.946.77-1.716 1.716-1.716h123.695c.947 0 1.717.77 1.717 1.716zm-75.613-306.463c6.89.498 13.055 3.747 17.359 9.15l13.11 16.455-141.638 81.774c-5.593-.733-11.359-.117-16.74 1.922l109.409-102.736c5.037-4.731 11.612-7.062 18.5-6.565zm-133.615 178.706-7.322 4.227c-8.476 4.9-19.367 1.979-24.273-6.507-4.912-8.511-2.006-19.37 6.504-24.283l9.197-5.308c.648 4.062 2.034 8.058 4.202 11.786zm72.429-24.5 22.181-12.807v28.23c-5.383-1.412-9.791-2.554-12.349-3.215zm50.972-20.218c2.191 5.511 1.674 11.832-1.385 16.909l-12.406 20.589v-38.746l10.81-6.241zm-60.493 8.395-18.175-22.569c-1.527-1.897-3.226-3.583-5.052-5.065l175.088-101.085c6.618 11.465 8.38 14.518 17.768 30.781-20.253 11.693-148.332 85.642-169.629 97.938zm190.793-120.629-12.706 7.336-8.699-15.07 12.706-7.335c4.162-2.404 9.48-.981 11.885 3.185 2.403 4.164.979 9.48-3.186 11.884z"/></g></svg>