<svg width="30" height="30" viewBox="0 0 30 30" fill="none" xmlns="http://www.w3.org/2000/svg">
<path d="M27.48 11.055H25.845C25.635 11.055 25.485 10.89 25.395 10.665C25.3414 10.5824 25.3129 10.486 25.3129 10.3875C25.3129 10.289 25.3414 10.1926 25.395 10.11L26.61 9C26.8481 8.77095 27.0373 8.49602 27.1663 8.1918C27.2952 7.88758 27.3611 7.5604 27.36 7.23C27.3597 6.89759 27.2932 6.56857 27.1644 6.26211C27.0357 5.95565 26.8472 5.67789 26.61 5.445L24.6 3.39C24.3672 3.15553 24.0902 2.96944 23.7852 2.84245C23.4801 2.71546 23.1529 2.65008 22.8225 2.65008C22.4921 2.65008 22.1649 2.71546 21.8598 2.84245C21.5548 2.96944 21.2778 3.15553 21.045 3.39L19.89 4.5C19.7982 4.5588 19.6915 4.59006 19.5825 4.59006C19.4735 4.59006 19.3668 4.5588 19.275 4.5C19.1844 4.46622 19.1053 4.4074 19.0469 4.33038C18.9885 4.25336 18.9531 4.16133 18.945 4.065V2.52C18.9453 1.86445 18.6901 1.23459 18.2336 0.764092C17.7771 0.293598 17.1553 0.0195104 16.5 3.89017e-10H13.59C12.9203 -1.17243e-05 12.2777 0.265008 11.8028 0.737173C11.3278 1.20934 11.059 1.85028 11.055 2.52V4.155C11.055 4.365 10.89 4.515 10.665 4.605C10.5824 4.65859 10.486 4.68711 10.3875 4.68711C10.289 4.68711 10.1926 4.65859 10.11 4.605L9 3.39C8.52493 2.91776 7.8848 2.6488 7.215 2.64C6.88486 2.64064 6.55819 2.70733 6.25421 2.83613C5.95023 2.96494 5.6751 3.15326 5.445 3.39L3.39 5.4C3.14867 5.63357 2.95677 5.91328 2.82572 6.22251C2.69467 6.53173 2.62713 6.86415 2.62713 7.2C2.62713 7.53585 2.69467 7.86827 2.82572 8.17749C2.95677 8.48672 3.14867 8.76643 3.39 9L4.5 10.11C4.5588 10.2018 4.59006 10.3085 4.59006 10.4175C4.59006 10.5265 4.5588 10.6332 4.5 10.725C4.46622 10.8156 4.4074 10.8947 4.33038 10.9531C4.25336 11.0115 4.16133 11.0469 4.065 11.055H2.52C1.85165 11.055 1.21068 11.3205 0.738091 11.7931C0.265499 12.2657 3.89019e-10 12.9067 3.89017e-10 13.575V16.41C-1.17243e-05 17.0797 0.265008 17.7223 0.737173 18.1972C1.20934 18.6722 1.85028 18.941 2.52 18.945H4.155C4.365 18.945 4.515 19.11 4.605 19.335C4.65859 19.4176 4.68711 19.514 4.68711 19.6125C4.68711 19.711 4.65859 19.8074 4.605 19.89L3.39 21C2.91776 21.4751 2.6488 22.1152 2.64 22.785C2.63949 23.1175 2.70559 23.4468 2.8344 23.7534C2.96321 24.06 3.15213 24.3376 3.39 24.57L5.4 26.61C5.63283 26.8445 5.90976 27.0306 6.21482 27.1576C6.51989 27.2845 6.84706 27.3499 7.1775 27.3499C7.50794 27.3499 7.83511 27.2845 8.14018 27.1576C8.44524 27.0306 8.72216 26.8445 8.955 26.61L10.11 25.5C10.2018 25.4412 10.3085 25.4099 10.4175 25.4099C10.5265 25.4099 10.6332 25.4412 10.725 25.5C10.8156 25.5338 10.8947 25.5926 10.9531 25.6696C11.0115 25.7466 11.0469 25.8387 11.055 25.935V27.57C11.0783 28.2226 11.3541 28.8407 11.8242 29.294C12.2943 29.7473 12.922 30.0004 13.575 30H16.41C17.0797 30 17.7223 29.735 18.1972 29.2628C18.6722 28.7907 18.941 28.1497 18.945 27.48V25.845C18.945 25.635 19.11 25.485 19.335 25.395C19.4176 25.3414 19.514 25.3129 19.6125 25.3129C19.711 25.3129 19.8074 25.3414 19.89 25.395L21.03 26.55C21.5051 27.0222 22.1452 27.2912 22.815 27.3C23.1451 27.2994 23.4718 27.2327 23.7758 27.1039C24.0798 26.9751 24.3549 26.7867 24.585 26.55L26.595 24.54C26.8295 24.3072 27.0156 24.0302 27.1426 23.7252C27.2695 23.4201 27.3349 23.0929 27.3349 22.7625C27.3349 22.4321 27.2695 22.1049 27.1426 21.7998C27.0156 21.4948 26.8295 21.2178 26.595 20.985L25.5 19.89C25.4464 19.8074 25.4179 19.711 25.4179 19.6125C25.4179 19.514 25.4464 19.4176 25.5 19.335C25.5338 19.2444 25.5926 19.1653 25.6696 19.1069C25.7466 19.0485 25.8387 19.0131 25.935 19.005H27.57C28.22 18.9818 28.8359 18.7081 29.2888 18.2412C29.7417 17.7744 29.9965 17.1504 30 16.5V13.59C30 12.9203 29.735 12.2777 29.2628 11.8028C28.7907 11.3278 28.1497 11.059 27.48 11.055ZM15 20.25C13.9616 20.25 12.9466 19.9421 12.0833 19.3652C11.2199 18.7883 10.547 17.9684 10.1496 17.0091C9.75227 16.0498 9.6483 14.9942 9.85088 13.9758C10.0534 12.9574 10.5535 12.0219 11.2877 11.2877C12.0219 10.5535 12.9574 10.0534 13.9758 9.85088C14.9942 9.6483 16.0498 9.75227 17.0091 10.1496C17.9684 10.547 18.7883 11.2199 19.3652 12.0833C19.9421 12.9466 20.25 13.9616 20.25 15C20.25 16.3924 19.6969 17.7277 18.7123 18.7123C17.7277 19.6969 16.3924 20.25 15 20.25Z" fill="#FEFEFE"/>
</svg>
